<svg 
    xmlns="http://www.w3.org/2000/svg" 
    xmlns:xlink="http://www.w3.org/1999/xlink" viewBox="0 0 960 960">
    <defs>
        <style>.a { fill: url(#a); } .b { fill: url(#b); }</style>
        <linearGradient id="a" x1="960" x2="0" y1="0" y2="960" gradientUnits="userSpaceOnUse">
            <stop offset="0" stop-color="#0575e6"/>
            <stop offset="1" stop-color="#021b79"/>
        </linearGradient>
        <radialGradient id="b" cx="480" cy="640" r="350" gradientUnits="userSpaceOnUse">
            <stop offset="0" stop-color="#fff" stop-opacity="1"/>
            <stop offset="1" stop-color="#fff" stop-opacity=".75"/>
        </radialGradient>
    </defs>
    <path d="M0 0h960v960H0z" class="a"/>
    <path d="M687.67 403.54a172.2 172.2 0 0 0-96.17 29.22 172.89 172.89 0 0 0-191.1-.83 172.29 172.29 0 0 0-94.94-28.39c-95.52 0-173.23 77.71-173.23 173.23S209.94 750 305.46 750a172.29 172.29 0 0 0 94.94-28.39 172.89 172.89 0 0 0 191.1-.83A172.2 172.2 0 0 0 687.67 750c95.52 0 173.23-77.71 173.23-173.23s-77.71-173.23-173.23-173.23zm-49.93 173.23a142.05 142.05 0 0 1-46.24 104.94 142.22 142.22 0 0 1 0-209.88 142.07 142.07 0 0 1 46.24 104.94zm-189.87 0a142.11 142.11 0 0 1-47.47 106.06 142.22 142.22 0 0 1 0-212.12 142.11 142.11 0 0 1 47.47 106.06zM305.46 719.18c-78.52 0-142.4-63.89-142.4-142.41s63.88-142.4 142.4-142.4a141.51 141.51 0 0 1 69.38 18.07 172.94 172.94 0 0 0 0 248.66 141.41 141.41 0 0 1-69.38 18.08zm189.87 0A141.47 141.47 0 0 1 426 701.11a173 173 0 0 0 0-248.68 142.26 142.26 0 0 1 140.31.89 172.92 172.92 0 0 0 0 246.9 141.52 141.52 0 0 1-70.98 18.96zm192.34 0a141.55 141.55 0 0 1-70.95-19 172.92 172.92 0 0 0 0-246.9 141.6 141.6 0 0 1 70.94-18.95c78.52 0 142.41 63.88 142.41 142.4s-63.88 142.45-142.4 142.45z" class="b"/>
    <path d="M131 229.7v184.94c0 19 29.59 19.07 29.59 0V229.7c0-19-29.59-19.07-29.59 0zm591.85 4.89L592.08 365.36m120.31-141.23L597.82 338.7l-16.2 16.2c-13.47 13.47 7.43 34.41 20.92 20.93l114.57-114.57 16.2-16.21c13.47-13.46-7.44-34.41-20.92-20.92z" class="b"/>
</svg>